<mxfile host="app.diagrams.net" modified="2024-03-24T11:57:59.846Z" agent="Mozilla/5.0 (Windows NT 10.0; Win64; x64) AppleWebKit/537.36 (KHTML, like Gecko) Chrome/122.0.0.0 Safari/537.36" etag="iluUeguWQKggDfPhy0qv" version="24.1.0" type="device">
  <diagram name="Stránka-1" id="hvy8RLIA8bzlDUWImA2B">
    <mxGraphModel dx="2074" dy="2275" grid="1" gridSize="10" guides="1" tooltips="1" connect="1" arrows="1" fold="1" page="1" pageScale="1" pageWidth="827" pageHeight="1169" math="0" shadow="0">
      <root>
        <mxCell id="0" />
        <mxCell id="1" parent="0" />
        <mxCell id="qh_DNMad2B4CbYvSn-4a-1" value="Infinite data stream system" style="shape=umlFrame;whiteSpace=wrap;html=1;pointerEvents=0;recursiveResize=0;container=1;collapsible=0;width=160;strokeWidth=3;" parent="1" vertex="1">
          <mxGeometry x="80" y="180" width="690" height="530" as="geometry" />
        </mxCell>
        <mxCell id="qh_DNMad2B4CbYvSn-4a-2" value="external system" style="shape=umlActor;verticalLabelPosition=bottom;verticalAlign=top;html=1;outlineConnect=0;align=center;" parent="1" vertex="1">
          <mxGeometry x="384" y="-30" width="30" height="60" as="geometry" />
        </mxCell>
        <mxCell id="qh_DNMad2B4CbYvSn-4a-5" value="" style="image;html=1;image=img/lib/clip_art/computers/Database_128x128.png" parent="1" vertex="1">
          <mxGeometry x="330" y="770" width="230" height="190" as="geometry" />
        </mxCell>
        <mxCell id="qh_DNMad2B4CbYvSn-4a-6" value="&lt;b&gt;&lt;font style=&quot;font-size: 15px;&quot;&gt;Key-value storage&lt;/font&gt;&lt;/b&gt;" style="text;html=1;align=center;verticalAlign=middle;whiteSpace=wrap;rounded=0;" parent="1" vertex="1">
          <mxGeometry x="370" y="980" width="150" height="30" as="geometry" />
        </mxCell>
        <mxCell id="qh_DNMad2B4CbYvSn-4a-10" value="Machine" style="shape=umlFrame;whiteSpace=wrap;html=1;pointerEvents=0;recursiveResize=0;container=1;collapsible=0;width=160;" parent="1" vertex="1">
          <mxGeometry x="10" y="100" width="810" height="930" as="geometry" />
        </mxCell>
        <mxCell id="UuAF6rYut4uY-6CLRpiu-19" value="" style="rounded=0;whiteSpace=wrap;html=1;" vertex="1" parent="qh_DNMad2B4CbYvSn-4a-10">
          <mxGeometry x="90" y="250" width="650" height="220" as="geometry" />
        </mxCell>
        <mxCell id="qh_DNMad2B4CbYvSn-4a-7" value="" style="endArrow=classic;html=1;rounded=0;strokeWidth=3;" parent="qh_DNMad2B4CbYvSn-4a-10" source="qh_DNMad2B4CbYvSn-4a-2" edge="1">
          <mxGeometry width="50" height="50" relative="1" as="geometry">
            <mxPoint x="390" y="-40" as="sourcePoint" />
            <mxPoint x="388.65999999999997" y="120" as="targetPoint" />
          </mxGeometry>
        </mxCell>
        <mxCell id="qh_DNMad2B4CbYvSn-4a-8" value="incoming stream&lt;br&gt;tuple(url, html content)" style="edgeLabel;html=1;align=center;verticalAlign=middle;resizable=0;points=[];" parent="qh_DNMad2B4CbYvSn-4a-7" vertex="1" connectable="0">
          <mxGeometry x="-0.4571" y="4" relative="1" as="geometry">
            <mxPoint x="56" y="-1" as="offset" />
          </mxGeometry>
        </mxCell>
        <mxCell id="qh_DNMad2B4CbYvSn-4a-12" value="«layer»&lt;br&gt;&lt;b&gt;Persistence Layer&lt;/b&gt;" style="html=1;whiteSpace=wrap;" parent="qh_DNMad2B4CbYvSn-4a-10" vertex="1">
          <mxGeometry x="120" y="500" width="590" height="50" as="geometry" />
        </mxCell>
        <mxCell id="qh_DNMad2B4CbYvSn-4a-14" value="" style="endArrow=classic;html=1;rounded=0;strokeWidth=4;" parent="qh_DNMad2B4CbYvSn-4a-10" edge="1">
          <mxGeometry width="50" height="50" relative="1" as="geometry">
            <mxPoint x="420" y="550" as="sourcePoint" />
            <mxPoint x="420" y="700" as="targetPoint" />
          </mxGeometry>
        </mxCell>
        <mxCell id="qh_DNMad2B4CbYvSn-4a-15" value="Store Data" style="edgeLabel;html=1;align=center;verticalAlign=middle;resizable=0;points=[];" parent="qh_DNMad2B4CbYvSn-4a-14" vertex="1" connectable="0">
          <mxGeometry x="0.0124" y="3" relative="1" as="geometry">
            <mxPoint as="offset" />
          </mxGeometry>
        </mxCell>
        <mxCell id="UuAF6rYut4uY-6CLRpiu-1" value="&lt;font style=&quot;font-size: 13px;&quot;&gt;&lt;b&gt;Record Receiver&lt;/b&gt;&lt;/font&gt;" style="rounded=0;whiteSpace=wrap;html=1;" vertex="1" parent="qh_DNMad2B4CbYvSn-4a-10">
          <mxGeometry x="290" y="130" width="200" height="90" as="geometry" />
        </mxCell>
        <mxCell id="UuAF6rYut4uY-6CLRpiu-2" value="Main Thread" style="text;html=1;align=center;verticalAlign=middle;whiteSpace=wrap;rounded=0;" vertex="1" parent="qh_DNMad2B4CbYvSn-4a-10">
          <mxGeometry x="290" y="130" width="80" height="30" as="geometry" />
        </mxCell>
        <mxCell id="UuAF6rYut4uY-6CLRpiu-3" value="" style="rounded=0;whiteSpace=wrap;html=1;" vertex="1" parent="qh_DNMad2B4CbYvSn-4a-10">
          <mxGeometry x="130" y="290" width="160" height="140" as="geometry" />
        </mxCell>
        <mxCell id="UuAF6rYut4uY-6CLRpiu-4" value="&lt;b&gt;Record Processor&lt;/b&gt;" style="text;html=1;align=center;verticalAlign=middle;whiteSpace=wrap;rounded=0;" vertex="1" parent="qh_DNMad2B4CbYvSn-4a-10">
          <mxGeometry x="155" y="320" width="110" height="30" as="geometry" />
        </mxCell>
        <mxCell id="UuAF6rYut4uY-6CLRpiu-5" value="" style="endArrow=classic;html=1;rounded=0;entryX=0.124;entryY=-0.04;entryDx=0;entryDy=0;entryPerimeter=0;exitX=0.388;exitY=1.015;exitDx=0;exitDy=0;exitPerimeter=0;" edge="1" parent="qh_DNMad2B4CbYvSn-4a-10" source="UuAF6rYut4uY-6CLRpiu-3" target="qh_DNMad2B4CbYvSn-4a-12">
          <mxGeometry width="50" height="50" relative="1" as="geometry">
            <mxPoint x="380" y="350" as="sourcePoint" />
            <mxPoint x="430" y="300" as="targetPoint" />
          </mxGeometry>
        </mxCell>
        <mxCell id="UuAF6rYut4uY-6CLRpiu-6" value="write operation" style="edgeLabel;html=1;align=center;verticalAlign=middle;resizable=0;points=[];" vertex="1" connectable="0" parent="UuAF6rYut4uY-6CLRpiu-5">
          <mxGeometry x="-0.0752" y="3" relative="1" as="geometry">
            <mxPoint as="offset" />
          </mxGeometry>
        </mxCell>
        <mxCell id="UuAF6rYut4uY-6CLRpiu-7" value="Thread 2" style="text;html=1;align=center;verticalAlign=middle;whiteSpace=wrap;rounded=0;" vertex="1" parent="qh_DNMad2B4CbYvSn-4a-10">
          <mxGeometry x="130" y="290" width="60" height="30" as="geometry" />
        </mxCell>
        <mxCell id="UuAF6rYut4uY-6CLRpiu-8" value="" style="rounded=0;whiteSpace=wrap;html=1;" vertex="1" parent="qh_DNMad2B4CbYvSn-4a-10">
          <mxGeometry x="329" y="290" width="160" height="140" as="geometry" />
        </mxCell>
        <mxCell id="UuAF6rYut4uY-6CLRpiu-9" value="&lt;b&gt;Record Processor&lt;/b&gt;" style="text;html=1;align=center;verticalAlign=middle;whiteSpace=wrap;rounded=0;" vertex="1" parent="qh_DNMad2B4CbYvSn-4a-10">
          <mxGeometry x="354" y="320" width="110" height="30" as="geometry" />
        </mxCell>
        <mxCell id="UuAF6rYut4uY-6CLRpiu-10" value="" style="endArrow=classic;html=1;rounded=0;entryX=0.124;entryY=-0.04;entryDx=0;entryDy=0;entryPerimeter=0;exitX=0.388;exitY=1.015;exitDx=0;exitDy=0;exitPerimeter=0;" edge="1" parent="qh_DNMad2B4CbYvSn-4a-10" source="UuAF6rYut4uY-6CLRpiu-8">
          <mxGeometry width="50" height="50" relative="1" as="geometry">
            <mxPoint x="579" y="350" as="sourcePoint" />
            <mxPoint x="392" y="498" as="targetPoint" />
          </mxGeometry>
        </mxCell>
        <mxCell id="UuAF6rYut4uY-6CLRpiu-11" value="write operation" style="edgeLabel;html=1;align=center;verticalAlign=middle;resizable=0;points=[];" vertex="1" connectable="0" parent="UuAF6rYut4uY-6CLRpiu-10">
          <mxGeometry x="-0.0752" y="3" relative="1" as="geometry">
            <mxPoint as="offset" />
          </mxGeometry>
        </mxCell>
        <mxCell id="UuAF6rYut4uY-6CLRpiu-12" value="Thread 3" style="text;html=1;align=center;verticalAlign=middle;whiteSpace=wrap;rounded=0;" vertex="1" parent="qh_DNMad2B4CbYvSn-4a-10">
          <mxGeometry x="329" y="290" width="60" height="30" as="geometry" />
        </mxCell>
        <mxCell id="UuAF6rYut4uY-6CLRpiu-13" value="" style="rounded=0;whiteSpace=wrap;html=1;" vertex="1" parent="qh_DNMad2B4CbYvSn-4a-10">
          <mxGeometry x="560" y="290" width="160" height="140" as="geometry" />
        </mxCell>
        <mxCell id="UuAF6rYut4uY-6CLRpiu-14" value="&lt;b&gt;Record Processor&lt;/b&gt;" style="text;html=1;align=center;verticalAlign=middle;whiteSpace=wrap;rounded=0;" vertex="1" parent="qh_DNMad2B4CbYvSn-4a-10">
          <mxGeometry x="585" y="320" width="110" height="30" as="geometry" />
        </mxCell>
        <mxCell id="UuAF6rYut4uY-6CLRpiu-15" value="" style="endArrow=classic;html=1;rounded=0;entryX=0.854;entryY=-0.1;entryDx=0;entryDy=0;entryPerimeter=0;exitX=0.388;exitY=1.015;exitDx=0;exitDy=0;exitPerimeter=0;" edge="1" parent="qh_DNMad2B4CbYvSn-4a-10" source="UuAF6rYut4uY-6CLRpiu-13" target="qh_DNMad2B4CbYvSn-4a-12">
          <mxGeometry width="50" height="50" relative="1" as="geometry">
            <mxPoint x="780" y="350" as="sourcePoint" />
            <mxPoint x="593" y="498" as="targetPoint" />
          </mxGeometry>
        </mxCell>
        <mxCell id="UuAF6rYut4uY-6CLRpiu-16" value="write operation" style="edgeLabel;html=1;align=center;verticalAlign=middle;resizable=0;points=[];" vertex="1" connectable="0" parent="UuAF6rYut4uY-6CLRpiu-15">
          <mxGeometry x="-0.0752" y="3" relative="1" as="geometry">
            <mxPoint as="offset" />
          </mxGeometry>
        </mxCell>
        <mxCell id="UuAF6rYut4uY-6CLRpiu-17" value="Thread n" style="text;html=1;align=center;verticalAlign=middle;whiteSpace=wrap;rounded=0;" vertex="1" parent="qh_DNMad2B4CbYvSn-4a-10">
          <mxGeometry x="560" y="290" width="60" height="30" as="geometry" />
        </mxCell>
        <mxCell id="UuAF6rYut4uY-6CLRpiu-18" value="" style="endArrow=none;dashed=1;html=1;dashPattern=1 3;strokeWidth=2;rounded=0;exitX=1;exitY=0.25;exitDx=0;exitDy=0;" edge="1" parent="qh_DNMad2B4CbYvSn-4a-10">
          <mxGeometry width="50" height="50" relative="1" as="geometry">
            <mxPoint x="500" y="359.5" as="sourcePoint" />
            <mxPoint x="550" y="360" as="targetPoint" />
          </mxGeometry>
        </mxCell>
        <mxCell id="UuAF6rYut4uY-6CLRpiu-20" value="Thread Pool" style="text;html=1;align=center;verticalAlign=middle;whiteSpace=wrap;rounded=0;" vertex="1" parent="qh_DNMad2B4CbYvSn-4a-10">
          <mxGeometry x="90" y="250" width="80" height="30" as="geometry" />
        </mxCell>
        <mxCell id="UuAF6rYut4uY-6CLRpiu-21" value="" style="endArrow=classic;html=1;rounded=0;" edge="1" parent="qh_DNMad2B4CbYvSn-4a-10">
          <mxGeometry width="50" height="50" relative="1" as="geometry">
            <mxPoint x="310" y="220" as="sourcePoint" />
            <mxPoint x="260" y="290" as="targetPoint" />
          </mxGeometry>
        </mxCell>
        <mxCell id="UuAF6rYut4uY-6CLRpiu-22" value="" style="endArrow=classic;html=1;rounded=0;entryX=0.5;entryY=0;entryDx=0;entryDy=0;" edge="1" parent="qh_DNMad2B4CbYvSn-4a-10" target="UuAF6rYut4uY-6CLRpiu-8">
          <mxGeometry width="50" height="50" relative="1" as="geometry">
            <mxPoint x="404" y="220" as="sourcePoint" />
            <mxPoint x="354" y="290" as="targetPoint" />
          </mxGeometry>
        </mxCell>
        <mxCell id="UuAF6rYut4uY-6CLRpiu-23" value="" style="endArrow=classic;html=1;rounded=0;exitX=0.885;exitY=1.011;exitDx=0;exitDy=0;exitPerimeter=0;entryX=0.75;entryY=0;entryDx=0;entryDy=0;" edge="1" parent="qh_DNMad2B4CbYvSn-4a-10" source="UuAF6rYut4uY-6CLRpiu-1" target="UuAF6rYut4uY-6CLRpiu-17">
          <mxGeometry width="50" height="50" relative="1" as="geometry">
            <mxPoint x="330" y="240" as="sourcePoint" />
            <mxPoint x="280" y="310" as="targetPoint" />
          </mxGeometry>
        </mxCell>
        <mxCell id="UuAF6rYut4uY-6CLRpiu-24" value="Distribute work between threads" style="text;html=1;align=center;verticalAlign=middle;whiteSpace=wrap;rounded=0;" vertex="1" parent="qh_DNMad2B4CbYvSn-4a-10">
          <mxGeometry x="300" y="190" width="180" height="30" as="geometry" />
        </mxCell>
      </root>
    </mxGraphModel>
  </diagram>
</mxfile>
